G04 #@! TF.FileFunction,Soldermask,Bot*
%FSLAX46Y46*%
G04 Gerber Fmt 4.6, Leading zero omitted, Abs format (unit mm)*
G04 Created by KiCad (PCBNEW 4.0.7) date 05/01/20 20:11:21*
%MOMM*%
%LPD*%
G01*
G04 APERTURE LIST*
%ADD10C,0.100000*%
%ADD11C,0.010000*%
%ADD12R,4.360000X4.360000*%
%ADD13R,1.670000X5.480000*%
%ADD14R,1.900000X1.700000*%
G04 APERTURE END LIST*
D10*
D11*
G36*
X82426739Y-65114863D02*
X82817917Y-65203448D01*
X83184116Y-65350202D01*
X83524098Y-65554612D01*
X83836623Y-65816165D01*
X83880043Y-65859267D01*
X84035876Y-66026090D01*
X84159764Y-66182538D01*
X84267384Y-66351043D01*
X84374413Y-66554038D01*
X84394658Y-66595625D01*
X84484199Y-66793485D01*
X84548514Y-66970323D01*
X84591385Y-67144276D01*
X84616591Y-67333484D01*
X84627916Y-67556085D01*
X84629625Y-67722750D01*
X84625142Y-67975915D01*
X84609175Y-68184188D01*
X84577942Y-68365708D01*
X84527660Y-68538613D01*
X84454550Y-68721041D01*
X84394658Y-68849875D01*
X84286085Y-69061388D01*
X84179720Y-69234406D01*
X84059887Y-69391362D01*
X83910907Y-69554688D01*
X83880043Y-69586232D01*
X83586484Y-69844576D01*
X83264530Y-70050870D01*
X82906656Y-70209359D01*
X82618868Y-70297187D01*
X82440939Y-70329389D01*
X82222203Y-70348931D01*
X81984121Y-70355588D01*
X81748159Y-70349137D01*
X81535777Y-70329356D01*
X81422334Y-70309639D01*
X81042720Y-70194340D01*
X80687100Y-70022736D01*
X80361112Y-69799305D01*
X80070392Y-69528532D01*
X79820576Y-69214897D01*
X79626474Y-68881736D01*
X79508947Y-68612937D01*
X79429882Y-68355242D01*
X79384333Y-68086563D01*
X79367354Y-67784811D01*
X79366950Y-67722750D01*
X79371236Y-67613427D01*
X80791075Y-67613427D01*
X80794677Y-67857523D01*
X80801462Y-67899537D01*
X80882360Y-68181145D01*
X81013147Y-68423963D01*
X81192613Y-68626467D01*
X81419549Y-68787133D01*
X81560085Y-68855403D01*
X81657102Y-68892353D01*
X81745905Y-68913896D01*
X81847909Y-68922922D01*
X81984532Y-68922324D01*
X82042000Y-68920466D01*
X82204072Y-68911213D01*
X82324829Y-68894252D01*
X82426371Y-68865165D01*
X82519463Y-68825032D01*
X82728405Y-68692758D01*
X82915376Y-68512862D01*
X83065169Y-68300861D01*
X83101822Y-68230750D01*
X83149605Y-68124843D01*
X83179038Y-68035642D01*
X83194467Y-67940857D01*
X83200239Y-67818196D01*
X83200875Y-67722750D01*
X83198734Y-67572393D01*
X83189433Y-67463080D01*
X83168650Y-67372415D01*
X83132067Y-67278006D01*
X83102876Y-67214750D01*
X82965626Y-66992078D01*
X82783897Y-66797603D01*
X82572729Y-66646707D01*
X82520626Y-66619315D01*
X82432366Y-66579244D01*
X82352517Y-66553720D01*
X82262252Y-66539535D01*
X82142742Y-66533478D01*
X82010250Y-66532327D01*
X81851579Y-66534050D01*
X81737143Y-66541562D01*
X81647731Y-66558036D01*
X81564133Y-66586646D01*
X81494763Y-66617474D01*
X81276843Y-66751510D01*
X81091801Y-66928689D01*
X80945350Y-67138444D01*
X80843204Y-67370212D01*
X80791075Y-67613427D01*
X79371236Y-67613427D01*
X79379122Y-67412335D01*
X79418937Y-67139137D01*
X79491340Y-66881065D01*
X79601277Y-66616031D01*
X79626474Y-66563763D01*
X79835318Y-66204609D01*
X80086044Y-65893050D01*
X80380011Y-65627790D01*
X80718579Y-65407534D01*
X80968138Y-65285752D01*
X81260396Y-65179877D01*
X81560387Y-65114843D01*
X81888258Y-65086773D01*
X82011822Y-65084962D01*
X82426739Y-65114863D01*
X82426739Y-65114863D01*
G37*
X82426739Y-65114863D02*
X82817917Y-65203448D01*
X83184116Y-65350202D01*
X83524098Y-65554612D01*
X83836623Y-65816165D01*
X83880043Y-65859267D01*
X84035876Y-66026090D01*
X84159764Y-66182538D01*
X84267384Y-66351043D01*
X84374413Y-66554038D01*
X84394658Y-66595625D01*
X84484199Y-66793485D01*
X84548514Y-66970323D01*
X84591385Y-67144276D01*
X84616591Y-67333484D01*
X84627916Y-67556085D01*
X84629625Y-67722750D01*
X84625142Y-67975915D01*
X84609175Y-68184188D01*
X84577942Y-68365708D01*
X84527660Y-68538613D01*
X84454550Y-68721041D01*
X84394658Y-68849875D01*
X84286085Y-69061388D01*
X84179720Y-69234406D01*
X84059887Y-69391362D01*
X83910907Y-69554688D01*
X83880043Y-69586232D01*
X83586484Y-69844576D01*
X83264530Y-70050870D01*
X82906656Y-70209359D01*
X82618868Y-70297187D01*
X82440939Y-70329389D01*
X82222203Y-70348931D01*
X81984121Y-70355588D01*
X81748159Y-70349137D01*
X81535777Y-70329356D01*
X81422334Y-70309639D01*
X81042720Y-70194340D01*
X80687100Y-70022736D01*
X80361112Y-69799305D01*
X80070392Y-69528532D01*
X79820576Y-69214897D01*
X79626474Y-68881736D01*
X79508947Y-68612937D01*
X79429882Y-68355242D01*
X79384333Y-68086563D01*
X79367354Y-67784811D01*
X79366950Y-67722750D01*
X79371236Y-67613427D01*
X80791075Y-67613427D01*
X80794677Y-67857523D01*
X80801462Y-67899537D01*
X80882360Y-68181145D01*
X81013147Y-68423963D01*
X81192613Y-68626467D01*
X81419549Y-68787133D01*
X81560085Y-68855403D01*
X81657102Y-68892353D01*
X81745905Y-68913896D01*
X81847909Y-68922922D01*
X81984532Y-68922324D01*
X82042000Y-68920466D01*
X82204072Y-68911213D01*
X82324829Y-68894252D01*
X82426371Y-68865165D01*
X82519463Y-68825032D01*
X82728405Y-68692758D01*
X82915376Y-68512862D01*
X83065169Y-68300861D01*
X83101822Y-68230750D01*
X83149605Y-68124843D01*
X83179038Y-68035642D01*
X83194467Y-67940857D01*
X83200239Y-67818196D01*
X83200875Y-67722750D01*
X83198734Y-67572393D01*
X83189433Y-67463080D01*
X83168650Y-67372415D01*
X83132067Y-67278006D01*
X83102876Y-67214750D01*
X82965626Y-66992078D01*
X82783897Y-66797603D01*
X82572729Y-66646707D01*
X82520626Y-66619315D01*
X82432366Y-66579244D01*
X82352517Y-66553720D01*
X82262252Y-66539535D01*
X82142742Y-66533478D01*
X82010250Y-66532327D01*
X81851579Y-66534050D01*
X81737143Y-66541562D01*
X81647731Y-66558036D01*
X81564133Y-66586646D01*
X81494763Y-66617474D01*
X81276843Y-66751510D01*
X81091801Y-66928689D01*
X80945350Y-67138444D01*
X80843204Y-67370212D01*
X80791075Y-67613427D01*
X79371236Y-67613427D01*
X79379122Y-67412335D01*
X79418937Y-67139137D01*
X79491340Y-66881065D01*
X79601277Y-66616031D01*
X79626474Y-66563763D01*
X79835318Y-66204609D01*
X80086044Y-65893050D01*
X80380011Y-65627790D01*
X80718579Y-65407534D01*
X80968138Y-65285752D01*
X81260396Y-65179877D01*
X81560387Y-65114843D01*
X81888258Y-65086773D01*
X82011822Y-65084962D01*
X82426739Y-65114863D01*
G36*
X100495016Y-65069553D02*
X100877923Y-65131555D01*
X101245852Y-65247021D01*
X101589548Y-65415625D01*
X101655036Y-65455995D01*
X101979219Y-65699083D01*
X102259346Y-65982562D01*
X102492423Y-66300249D01*
X102675453Y-66645956D01*
X102805440Y-67013498D01*
X102879387Y-67396689D01*
X102894300Y-67789343D01*
X102879146Y-67983344D01*
X102808002Y-68375084D01*
X102688354Y-68731317D01*
X102516145Y-69060359D01*
X102287319Y-69370524D01*
X102108000Y-69564250D01*
X101806983Y-69830763D01*
X101493469Y-70038067D01*
X101159260Y-70190305D01*
X100796160Y-70291622D01*
X100605515Y-70323893D01*
X100353568Y-70349674D01*
X100127894Y-70350826D01*
X99895985Y-70326740D01*
X99786475Y-70308512D01*
X99386033Y-70205173D01*
X99015521Y-70046940D01*
X98678595Y-69836561D01*
X98378915Y-69576783D01*
X98120138Y-69270353D01*
X97905923Y-68920019D01*
X97886572Y-68881625D01*
X97778109Y-68646902D01*
X97701876Y-68439605D01*
X97651618Y-68236650D01*
X97621081Y-68014956D01*
X97609346Y-67858646D01*
X97611815Y-67691000D01*
X99045265Y-67691000D01*
X99046739Y-67840498D01*
X99055392Y-67949006D01*
X99075550Y-68038968D01*
X99111545Y-68132829D01*
X99144177Y-68203802D01*
X99290341Y-68443564D01*
X99475936Y-68637399D01*
X99693644Y-68782352D01*
X99936146Y-68875470D01*
X100196124Y-68913797D01*
X100466259Y-68894380D01*
X100697220Y-68830706D01*
X100872527Y-68739104D01*
X101046876Y-68602258D01*
X101203874Y-68436517D01*
X101327128Y-68258233D01*
X101378325Y-68151375D01*
X101440480Y-67922061D01*
X101459300Y-67678810D01*
X101435010Y-67441976D01*
X101368263Y-67232843D01*
X101219674Y-66979650D01*
X101034226Y-66776420D01*
X100815695Y-66625456D01*
X100567857Y-66529060D01*
X100294488Y-66489534D01*
X100152410Y-66491621D01*
X99897417Y-66538809D01*
X99657820Y-66642763D01*
X99442840Y-66797049D01*
X99261702Y-66995232D01*
X99138564Y-67198875D01*
X99093672Y-67299131D01*
X99066028Y-67387504D01*
X99051496Y-67485806D01*
X99045940Y-67615852D01*
X99045265Y-67691000D01*
X97611815Y-67691000D01*
X97615464Y-67443290D01*
X97681313Y-67045173D01*
X97804430Y-66668720D01*
X97982351Y-66318354D01*
X98212615Y-65998500D01*
X98492759Y-65713583D01*
X98820318Y-65468027D01*
X98998728Y-65362684D01*
X99348987Y-65207580D01*
X99721292Y-65107240D01*
X100106387Y-65061340D01*
X100495016Y-65069553D01*
X100495016Y-65069553D01*
G37*
X100495016Y-65069553D02*
X100877923Y-65131555D01*
X101245852Y-65247021D01*
X101589548Y-65415625D01*
X101655036Y-65455995D01*
X101979219Y-65699083D01*
X102259346Y-65982562D01*
X102492423Y-66300249D01*
X102675453Y-66645956D01*
X102805440Y-67013498D01*
X102879387Y-67396689D01*
X102894300Y-67789343D01*
X102879146Y-67983344D01*
X102808002Y-68375084D01*
X102688354Y-68731317D01*
X102516145Y-69060359D01*
X102287319Y-69370524D01*
X102108000Y-69564250D01*
X101806983Y-69830763D01*
X101493469Y-70038067D01*
X101159260Y-70190305D01*
X100796160Y-70291622D01*
X100605515Y-70323893D01*
X100353568Y-70349674D01*
X100127894Y-70350826D01*
X99895985Y-70326740D01*
X99786475Y-70308512D01*
X99386033Y-70205173D01*
X99015521Y-70046940D01*
X98678595Y-69836561D01*
X98378915Y-69576783D01*
X98120138Y-69270353D01*
X97905923Y-68920019D01*
X97886572Y-68881625D01*
X97778109Y-68646902D01*
X97701876Y-68439605D01*
X97651618Y-68236650D01*
X97621081Y-68014956D01*
X97609346Y-67858646D01*
X97611815Y-67691000D01*
X99045265Y-67691000D01*
X99046739Y-67840498D01*
X99055392Y-67949006D01*
X99075550Y-68038968D01*
X99111545Y-68132829D01*
X99144177Y-68203802D01*
X99290341Y-68443564D01*
X99475936Y-68637399D01*
X99693644Y-68782352D01*
X99936146Y-68875470D01*
X100196124Y-68913797D01*
X100466259Y-68894380D01*
X100697220Y-68830706D01*
X100872527Y-68739104D01*
X101046876Y-68602258D01*
X101203874Y-68436517D01*
X101327128Y-68258233D01*
X101378325Y-68151375D01*
X101440480Y-67922061D01*
X101459300Y-67678810D01*
X101435010Y-67441976D01*
X101368263Y-67232843D01*
X101219674Y-66979650D01*
X101034226Y-66776420D01*
X100815695Y-66625456D01*
X100567857Y-66529060D01*
X100294488Y-66489534D01*
X100152410Y-66491621D01*
X99897417Y-66538809D01*
X99657820Y-66642763D01*
X99442840Y-66797049D01*
X99261702Y-66995232D01*
X99138564Y-67198875D01*
X99093672Y-67299131D01*
X99066028Y-67387504D01*
X99051496Y-67485806D01*
X99045940Y-67615852D01*
X99045265Y-67691000D01*
X97611815Y-67691000D01*
X97615464Y-67443290D01*
X97681313Y-67045173D01*
X97804430Y-66668720D01*
X97982351Y-66318354D01*
X98212615Y-65998500D01*
X98492759Y-65713583D01*
X98820318Y-65468027D01*
X98998728Y-65362684D01*
X99348987Y-65207580D01*
X99721292Y-65107240D01*
X100106387Y-65061340D01*
X100495016Y-65069553D01*
G36*
X91442264Y-50471478D02*
X91740783Y-50561886D01*
X92021967Y-50700024D01*
X92279063Y-50884776D01*
X92505320Y-51115030D01*
X92693987Y-51389671D01*
X92753209Y-51502927D01*
X92880531Y-51819573D01*
X92949754Y-52126914D01*
X92962461Y-52437330D01*
X92920236Y-52763198D01*
X92916678Y-52780275D01*
X92818278Y-53095816D01*
X92665102Y-53388460D01*
X92463777Y-53651500D01*
X92220928Y-53878226D01*
X91943182Y-54061931D01*
X91637165Y-54195907D01*
X91471750Y-54243066D01*
X91333747Y-54266480D01*
X91166237Y-54281853D01*
X90992563Y-54288285D01*
X90836069Y-54284872D01*
X90725625Y-54271909D01*
X90362507Y-54169556D01*
X90044369Y-54022698D01*
X89770067Y-53830478D01*
X89538458Y-53592039D01*
X89348402Y-53306525D01*
X89291819Y-53196007D01*
X89169528Y-52869722D01*
X89107531Y-52535815D01*
X89104633Y-52201337D01*
X89159639Y-51873340D01*
X89271353Y-51558874D01*
X89438580Y-51264988D01*
X89660124Y-50998735D01*
X89665171Y-50993671D01*
X89925926Y-50774328D01*
X90209854Y-50609394D01*
X90510203Y-50497755D01*
X90820222Y-50438299D01*
X91133159Y-50429911D01*
X91442264Y-50471478D01*
X91442264Y-50471478D01*
G37*
X91442264Y-50471478D02*
X91740783Y-50561886D01*
X92021967Y-50700024D01*
X92279063Y-50884776D01*
X92505320Y-51115030D01*
X92693987Y-51389671D01*
X92753209Y-51502927D01*
X92880531Y-51819573D01*
X92949754Y-52126914D01*
X92962461Y-52437330D01*
X92920236Y-52763198D01*
X92916678Y-52780275D01*
X92818278Y-53095816D01*
X92665102Y-53388460D01*
X92463777Y-53651500D01*
X92220928Y-53878226D01*
X91943182Y-54061931D01*
X91637165Y-54195907D01*
X91471750Y-54243066D01*
X91333747Y-54266480D01*
X91166237Y-54281853D01*
X90992563Y-54288285D01*
X90836069Y-54284872D01*
X90725625Y-54271909D01*
X90362507Y-54169556D01*
X90044369Y-54022698D01*
X89770067Y-53830478D01*
X89538458Y-53592039D01*
X89348402Y-53306525D01*
X89291819Y-53196007D01*
X89169528Y-52869722D01*
X89107531Y-52535815D01*
X89104633Y-52201337D01*
X89159639Y-51873340D01*
X89271353Y-51558874D01*
X89438580Y-51264988D01*
X89660124Y-50998735D01*
X89665171Y-50993671D01*
X89925926Y-50774328D01*
X90209854Y-50609394D01*
X90510203Y-50497755D01*
X90820222Y-50438299D01*
X91133159Y-50429911D01*
X91442264Y-50471478D01*
D12*
X90850000Y-94500000D03*
D13*
X79865000Y-94500000D03*
X101835000Y-94500000D03*
D14*
X80500000Y-67700000D03*
X83200000Y-67700000D03*
X98900000Y-67650000D03*
X101600000Y-67650000D03*
X89550000Y-80350000D03*
X92250000Y-80350000D03*
M02*
