G04 #@! TF.FileFunction,Other,Fab,Bot*
%FSLAX46Y46*%
G04 Gerber Fmt 4.6, Leading zero omitted, Abs format (unit mm)*
G04 Created by KiCad (PCBNEW 4.0.7) date 05/01/20 20:11:21*
%MOMM*%
%LPD*%
G01*
G04 APERTURE LIST*
%ADD10C,0.100000*%
%ADD11C,0.150000*%
%ADD12C,0.075000*%
G04 APERTURE END LIST*
D10*
X100040000Y-102030000D02*
X101480000Y-98100000D01*
X101480000Y-98100000D02*
X101480000Y-89100000D01*
X101480000Y-89100000D02*
X99490000Y-87110000D01*
X99490000Y-87110000D02*
X82210000Y-87110000D01*
X82210000Y-87110000D02*
X80220000Y-89100000D01*
X80220000Y-89100000D02*
X80220000Y-98100000D01*
X80220000Y-98100000D02*
X81660000Y-102030000D01*
X81669274Y-102028882D02*
G75*
G03X84750000Y-102930000I1870726J678882D01*
G01*
X96944852Y-102926043D02*
G75*
G03X84750000Y-102930000I-6094852J-7933957D01*
G01*
X96946145Y-102938508D02*
G75*
G03X100040000Y-102030000I1213855J1588508D01*
G01*
X81450000Y-68100000D02*
X81450000Y-67300000D01*
X81450000Y-67700000D02*
X82050000Y-68100000D01*
X82050000Y-67300000D02*
X81450000Y-67700000D01*
X82050000Y-68100000D02*
X82050000Y-67300000D01*
X80850000Y-67080000D02*
X80850000Y-68320000D01*
X82850000Y-67080000D02*
X80850000Y-67080000D01*
X82850000Y-68320000D02*
X82850000Y-67080000D01*
X80850000Y-68320000D02*
X82850000Y-68320000D01*
X99850000Y-68050000D02*
X99850000Y-67250000D01*
X99850000Y-67650000D02*
X100450000Y-68050000D01*
X100450000Y-67250000D02*
X99850000Y-67650000D01*
X100450000Y-68050000D02*
X100450000Y-67250000D01*
X99250000Y-67030000D02*
X99250000Y-68270000D01*
X101250000Y-67030000D02*
X99250000Y-67030000D01*
X101250000Y-68270000D02*
X101250000Y-67030000D01*
X99250000Y-68270000D02*
X101250000Y-68270000D01*
X89900000Y-79730000D02*
X89900000Y-80970000D01*
X91900000Y-79730000D02*
X89900000Y-79730000D01*
X91900000Y-80970000D02*
X91900000Y-79730000D01*
X89900000Y-80970000D02*
X91900000Y-80970000D01*
D11*
X91564286Y-105452381D02*
X90945238Y-105452381D01*
X91278572Y-105833333D01*
X91135714Y-105833333D01*
X91040476Y-105880952D01*
X90992857Y-105928571D01*
X90945238Y-106023810D01*
X90945238Y-106261905D01*
X90992857Y-106357143D01*
X91040476Y-106404762D01*
X91135714Y-106452381D01*
X91421429Y-106452381D01*
X91516667Y-106404762D01*
X91564286Y-106357143D01*
X90611905Y-105785714D02*
X90373810Y-106452381D01*
X90135714Y-105785714D01*
X91635714Y-91528571D02*
X91492857Y-91576190D01*
X91445238Y-91623810D01*
X91397619Y-91719048D01*
X91397619Y-91861905D01*
X91445238Y-91957143D01*
X91492857Y-92004762D01*
X91588095Y-92052381D01*
X91969048Y-92052381D01*
X91969048Y-91052381D01*
X91635714Y-91052381D01*
X91540476Y-91100000D01*
X91492857Y-91147619D01*
X91445238Y-91242857D01*
X91445238Y-91338095D01*
X91492857Y-91433333D01*
X91540476Y-91480952D01*
X91635714Y-91528571D01*
X91969048Y-91528571D01*
X91111905Y-91052381D02*
X90540476Y-91052381D01*
X90826191Y-92052381D02*
X90826191Y-91052381D01*
X89683333Y-92052381D02*
X90254762Y-92052381D01*
X89969048Y-92052381D02*
X89969048Y-91052381D01*
X90064286Y-91195238D01*
X90159524Y-91290476D01*
X90254762Y-91338095D01*
X82492857Y-66402381D02*
X82969048Y-66402381D01*
X82969048Y-65402381D01*
X82159524Y-65878571D02*
X81826190Y-65878571D01*
X81683333Y-66402381D02*
X82159524Y-66402381D01*
X82159524Y-65402381D01*
X81683333Y-65402381D01*
X81254762Y-66402381D02*
X81254762Y-65402381D01*
X81016667Y-65402381D01*
X80873809Y-65450000D01*
X80778571Y-65545238D01*
X80730952Y-65640476D01*
X80683333Y-65830952D01*
X80683333Y-65973810D01*
X80730952Y-66164286D01*
X80778571Y-66259524D01*
X80873809Y-66354762D01*
X81016667Y-66402381D01*
X81254762Y-66402381D01*
X100892857Y-66352381D02*
X101369048Y-66352381D01*
X101369048Y-65352381D01*
X100559524Y-65828571D02*
X100226190Y-65828571D01*
X100083333Y-66352381D02*
X100559524Y-66352381D01*
X100559524Y-65352381D01*
X100083333Y-65352381D01*
X99654762Y-66352381D02*
X99654762Y-65352381D01*
X99416667Y-65352381D01*
X99273809Y-65400000D01*
X99178571Y-65495238D01*
X99130952Y-65590476D01*
X99083333Y-65780952D01*
X99083333Y-65923810D01*
X99130952Y-66114286D01*
X99178571Y-66209524D01*
X99273809Y-66304762D01*
X99416667Y-66352381D01*
X99654762Y-66352381D01*
X91638095Y-78052381D02*
X92114286Y-78052381D01*
X92161905Y-78528571D01*
X92114286Y-78480952D01*
X92019048Y-78433333D01*
X91780952Y-78433333D01*
X91685714Y-78480952D01*
X91638095Y-78528571D01*
X91590476Y-78623810D01*
X91590476Y-78861905D01*
X91638095Y-78957143D01*
X91685714Y-79004762D01*
X91780952Y-79052381D01*
X92019048Y-79052381D01*
X92114286Y-79004762D01*
X92161905Y-78957143D01*
X90971429Y-78052381D02*
X90876190Y-78052381D01*
X90780952Y-78100000D01*
X90733333Y-78147619D01*
X90685714Y-78242857D01*
X90638095Y-78433333D01*
X90638095Y-78671429D01*
X90685714Y-78861905D01*
X90733333Y-78957143D01*
X90780952Y-79004762D01*
X90876190Y-79052381D01*
X90971429Y-79052381D01*
X91066667Y-79004762D01*
X91114286Y-78957143D01*
X91161905Y-78861905D01*
X91209524Y-78671429D01*
X91209524Y-78433333D01*
X91161905Y-78242857D01*
X91114286Y-78147619D01*
X91066667Y-78100000D01*
X90971429Y-78052381D01*
X89638095Y-79052381D02*
X89971429Y-78576190D01*
X90209524Y-79052381D02*
X90209524Y-78052381D01*
X89828571Y-78052381D01*
X89733333Y-78100000D01*
X89685714Y-78147619D01*
X89638095Y-78242857D01*
X89638095Y-78385714D01*
X89685714Y-78480952D01*
X89733333Y-78528571D01*
X89828571Y-78576190D01*
X90209524Y-78576190D01*
D12*
X90983333Y-80576190D02*
X91150000Y-80338095D01*
X91269047Y-80576190D02*
X91269047Y-80076190D01*
X91078571Y-80076190D01*
X91030952Y-80100000D01*
X91007143Y-80123810D01*
X90983333Y-80171429D01*
X90983333Y-80242857D01*
X91007143Y-80290476D01*
X91030952Y-80314286D01*
X91078571Y-80338095D01*
X91269047Y-80338095D01*
X90507143Y-80576190D02*
X90792857Y-80576190D01*
X90650000Y-80576190D02*
X90650000Y-80076190D01*
X90697619Y-80147619D01*
X90745238Y-80195238D01*
X90792857Y-80219048D01*
M02*
