G04 #@! TF.FileFunction,Legend,Top*
%FSLAX46Y46*%
G04 Gerber Fmt 4.6, Leading zero omitted, Abs format (unit mm)*
G04 Created by KiCad (PCBNEW 4.0.7) date 05/01/20 20:11:21*
%MOMM*%
%LPD*%
G01*
G04 APERTURE LIST*
%ADD10C,0.100000*%
%ADD11C,0.300000*%
%ADD12C,0.200000*%
%ADD13C,0.010000*%
G04 APERTURE END LIST*
D10*
D11*
X134182272Y-97537458D02*
X134110157Y-97679970D01*
X134038385Y-97751054D01*
X133895185Y-97821794D01*
X133823758Y-97821450D01*
X133681247Y-97749335D01*
X133610162Y-97677564D01*
X133539422Y-97534363D01*
X133540797Y-97248653D01*
X133612913Y-97106141D01*
X133684685Y-97035057D01*
X133827884Y-96964317D01*
X133899311Y-96964661D01*
X134041823Y-97036776D01*
X134112907Y-97108548D01*
X134183648Y-97251747D01*
X134182272Y-97537458D01*
X134253012Y-97680658D01*
X134324096Y-97752429D01*
X134466608Y-97824545D01*
X134752318Y-97825920D01*
X134895518Y-97755179D01*
X134967290Y-97684096D01*
X135039404Y-97541584D01*
X135040780Y-97255873D01*
X134970040Y-97112674D01*
X134898956Y-97040902D01*
X134756444Y-96968787D01*
X134470734Y-96967412D01*
X134327534Y-97038151D01*
X134255762Y-97109236D01*
X134183648Y-97251747D01*
X133544579Y-96462948D02*
X133549049Y-95534388D01*
X134118064Y-96037132D01*
X134119096Y-95822849D01*
X134191212Y-95680337D01*
X134262983Y-95609253D01*
X134406182Y-95538513D01*
X134763321Y-95540232D01*
X134905832Y-95612347D01*
X134976916Y-95684119D01*
X135047656Y-95827318D01*
X135045593Y-96255885D01*
X134973478Y-96398397D01*
X134901706Y-96469480D01*
X134909270Y-94898071D02*
X134981042Y-94826987D01*
X135052126Y-94898758D01*
X134980355Y-94969843D01*
X134909270Y-94898071D01*
X135052126Y-94898758D01*
X135059346Y-93398776D02*
X135055220Y-94255909D01*
X135057283Y-93827342D02*
X133557300Y-93820121D01*
X133770896Y-93964008D01*
X133913064Y-94107552D01*
X133983804Y-94250751D01*
X133563833Y-92462995D02*
X133564520Y-92320140D01*
X133636636Y-92177628D01*
X133708408Y-92106544D01*
X133851607Y-92035803D01*
X134137662Y-91965752D01*
X134494801Y-91967471D01*
X134780168Y-92040273D01*
X134922679Y-92112389D01*
X134993763Y-92184161D01*
X135064503Y-92327360D01*
X135063815Y-92470215D01*
X134991701Y-92612727D01*
X134919929Y-92683811D01*
X134776729Y-92754551D01*
X134490675Y-92824604D01*
X134133536Y-92822885D01*
X133848169Y-92750081D01*
X133705658Y-92677966D01*
X133634573Y-92606194D01*
X133563833Y-92462995D01*
X135073098Y-90541667D02*
X135068973Y-91398800D01*
X135071035Y-90970233D02*
X133571053Y-90963013D01*
X133784649Y-91106899D01*
X133926816Y-91250443D01*
X133997557Y-91393642D01*
X135081694Y-88755973D02*
X134081705Y-88751160D01*
X134224562Y-88751848D02*
X134153477Y-88680077D01*
X134082737Y-88536876D01*
X134083768Y-88322594D01*
X134155884Y-88180082D01*
X134299083Y-88109342D01*
X135084788Y-88113124D01*
X134299083Y-88109342D02*
X134156572Y-88037226D01*
X134085831Y-87894027D01*
X134086863Y-87679744D01*
X134158978Y-87537232D01*
X134302178Y-87466492D01*
X135087882Y-87470274D01*
X135091321Y-86755997D02*
X134091332Y-86751183D01*
X134234189Y-86751871D02*
X134163104Y-86680100D01*
X134092364Y-86536900D01*
X134093395Y-86322617D01*
X134165511Y-86180106D01*
X134308710Y-86109365D01*
X135094415Y-86113147D01*
X134308710Y-86109365D02*
X134166199Y-86037249D01*
X134095458Y-85894050D01*
X134096489Y-85679768D01*
X134168605Y-85537255D01*
X134311804Y-85466515D01*
X135097509Y-85470297D01*
X133239394Y-50053318D02*
X132839394Y-133153318D01*
X91000000Y-49850000D02*
X135939363Y-50066314D01*
X90600000Y-132950000D02*
X135539363Y-133166314D01*
X132839394Y-133153318D02*
X132258402Y-132024005D01*
X132839394Y-133153318D02*
X133431230Y-132029650D01*
X133239394Y-50053318D02*
X132647558Y-51176986D01*
X133239394Y-50053318D02*
X133820386Y-51182631D01*
X85797586Y-133994835D02*
X85511874Y-133993774D01*
X85368753Y-134064671D01*
X85297059Y-134135835D01*
X85153407Y-134349587D01*
X85080917Y-134635035D01*
X85078795Y-135206459D01*
X85149692Y-135349581D01*
X85220855Y-135421274D01*
X85363446Y-135493233D01*
X85649158Y-135494294D01*
X85792280Y-135423397D01*
X85863973Y-135352234D01*
X85935932Y-135209643D01*
X85937258Y-134852503D01*
X85866361Y-134709381D01*
X85795198Y-134637688D01*
X85652608Y-134565729D01*
X85366896Y-134564668D01*
X85223773Y-134635566D01*
X85152080Y-134706728D01*
X85080121Y-134849319D01*
X86440439Y-133997223D02*
X87440432Y-134000938D01*
X86792007Y-135498539D01*
X88006815Y-135360194D02*
X88077977Y-135431888D01*
X88006284Y-135503050D01*
X87935121Y-135431357D01*
X88006815Y-135360194D01*
X88006284Y-135503050D01*
X88583281Y-134005183D02*
X89511846Y-134008632D01*
X89009726Y-134578200D01*
X89224011Y-134578996D01*
X89366602Y-134650955D01*
X89437765Y-134722648D01*
X89508662Y-134865769D01*
X89507335Y-135222910D01*
X89435377Y-135365501D01*
X89363683Y-135436664D01*
X89220562Y-135507561D01*
X88791993Y-135505969D01*
X88649402Y-135434010D01*
X88578240Y-135362317D01*
X90440410Y-134012082D02*
X90583266Y-134012612D01*
X90725857Y-134084571D01*
X90797020Y-134156265D01*
X90867918Y-134299387D01*
X90938284Y-134585364D01*
X90936957Y-134942505D01*
X90864469Y-135227951D01*
X90792509Y-135370542D01*
X90720816Y-135441705D01*
X90577694Y-135512602D01*
X90434838Y-135512071D01*
X90292248Y-135440113D01*
X90221084Y-135368419D01*
X90150188Y-135225298D01*
X90079820Y-134939321D01*
X90081147Y-134582180D01*
X90153637Y-134296733D01*
X90225595Y-134154143D01*
X90297289Y-134082979D01*
X90440410Y-134012082D01*
X91868971Y-134017388D02*
X92011827Y-134017919D01*
X92154418Y-134089878D01*
X92225581Y-134161572D01*
X92296479Y-134304693D01*
X92366845Y-134590671D01*
X92365519Y-134947811D01*
X92293030Y-135233258D01*
X92221071Y-135375849D01*
X92149377Y-135447012D01*
X92006255Y-135517909D01*
X91863399Y-135517378D01*
X91720809Y-135445420D01*
X91649646Y-135373726D01*
X91578749Y-135230605D01*
X91508382Y-134944627D01*
X91509708Y-134587487D01*
X91582198Y-134302040D01*
X91654156Y-134159449D01*
X91725850Y-134088286D01*
X91868971Y-134017388D01*
X94149098Y-135525869D02*
X94152812Y-134525876D01*
X94152282Y-134668733D02*
X94223974Y-134597569D01*
X94367097Y-134526672D01*
X94581380Y-134527468D01*
X94723971Y-134599427D01*
X94794869Y-134742548D01*
X94791950Y-135528257D01*
X94794869Y-134742548D02*
X94866828Y-134599957D01*
X95009949Y-134529060D01*
X95224233Y-134529856D01*
X95366825Y-134601815D01*
X95437721Y-134744936D01*
X95434803Y-135530645D01*
X96149084Y-135533298D02*
X96152798Y-134533305D01*
X96152268Y-134676162D02*
X96223961Y-134604999D01*
X96367083Y-134534101D01*
X96581367Y-134534897D01*
X96723957Y-134606856D01*
X96794855Y-134749978D01*
X96791936Y-135535686D01*
X96794855Y-134749978D02*
X96866814Y-134607387D01*
X97009936Y-134536489D01*
X97224219Y-134537285D01*
X97366811Y-134609244D01*
X97437708Y-134752366D01*
X97434789Y-135538074D01*
X57649511Y-133361699D02*
X124949511Y-133611699D01*
X57800000Y-92850000D02*
X57639481Y-136061680D01*
X125100000Y-93100000D02*
X124939481Y-136311680D01*
X124949511Y-133611699D02*
X123820837Y-134193931D01*
X124949511Y-133611699D02*
X123825193Y-133021098D01*
X57649511Y-133361699D02*
X58773829Y-133952300D01*
X57649511Y-133361699D02*
X58778185Y-132779467D01*
D12*
X103350403Y-67550000D02*
G75*
G03X103350403Y-67550000I-3100403J0D01*
G01*
X85112668Y-67600000D02*
G75*
G03X85112668Y-67600000I-3262668J0D01*
G01*
D13*
G36*
X91398249Y-78049251D02*
X91757104Y-78063158D01*
X92108515Y-78088520D01*
X92470988Y-78126400D01*
X92863026Y-78177862D01*
X92916375Y-78185496D01*
X93813917Y-78346329D01*
X94712925Y-78569636D01*
X95611396Y-78854483D01*
X96507325Y-79199939D01*
X97398709Y-79605072D01*
X98283545Y-80068950D01*
X99159830Y-80590641D01*
X100025558Y-81169212D01*
X100878728Y-81803731D01*
X101139625Y-82011064D01*
X101802217Y-82569269D01*
X102471756Y-83178846D01*
X103138401Y-83829924D01*
X103792315Y-84512635D01*
X104423660Y-85217107D01*
X104904885Y-85788511D01*
X105630894Y-86715508D01*
X106336654Y-87695536D01*
X107016876Y-88719913D01*
X107666269Y-89779957D01*
X108279541Y-90866984D01*
X108851403Y-91972313D01*
X109376565Y-93087262D01*
X109441754Y-93233875D01*
X109787964Y-94052840D01*
X110121413Y-94910211D01*
X110436924Y-95790548D01*
X110729322Y-96678415D01*
X110993432Y-97558373D01*
X111224078Y-98414982D01*
X111342368Y-98903186D01*
X111585123Y-100062678D01*
X111773661Y-101208356D01*
X111907828Y-102337561D01*
X111987470Y-103447634D01*
X112012437Y-104535915D01*
X111982573Y-105599744D01*
X111897726Y-106636464D01*
X111821629Y-107235625D01*
X111644639Y-108249217D01*
X111410819Y-109235180D01*
X111120927Y-110192645D01*
X110775716Y-111120747D01*
X110375943Y-112018618D01*
X109922364Y-112885393D01*
X109415733Y-113720204D01*
X108856807Y-114522185D01*
X108246340Y-115290469D01*
X107585089Y-116024189D01*
X106873809Y-116722480D01*
X106113255Y-117384473D01*
X105304183Y-118009303D01*
X104447349Y-118596103D01*
X103543508Y-119144007D01*
X102593415Y-119652146D01*
X101597826Y-120119656D01*
X100557497Y-120545669D01*
X100057778Y-120729722D01*
X99055063Y-121058340D01*
X98008355Y-121347501D01*
X96924096Y-121596332D01*
X95808725Y-121803961D01*
X94668686Y-121969514D01*
X93510417Y-122092118D01*
X92340362Y-122170899D01*
X91164960Y-122204986D01*
X89990653Y-122193503D01*
X89423875Y-122171286D01*
X88168499Y-122084186D01*
X86938744Y-121947469D01*
X85736529Y-121761765D01*
X84563778Y-121527704D01*
X83422410Y-121245917D01*
X82314348Y-120917033D01*
X81241513Y-120541683D01*
X80205827Y-120120497D01*
X79209209Y-119654105D01*
X78253583Y-119143138D01*
X77340870Y-118588225D01*
X76472990Y-117989997D01*
X76312484Y-117870862D01*
X75658577Y-117352111D01*
X75018012Y-116789932D01*
X74401596Y-116195058D01*
X73820133Y-115578222D01*
X73284428Y-114950156D01*
X72982432Y-114563046D01*
X72417290Y-113758818D01*
X71906527Y-112922392D01*
X71450390Y-112054772D01*
X71049130Y-111156959D01*
X70702995Y-110229957D01*
X70412233Y-109274768D01*
X70177094Y-108292394D01*
X69997826Y-107283839D01*
X69874679Y-106250104D01*
X69807901Y-105192192D01*
X69797741Y-104111107D01*
X69844447Y-103007849D01*
X69913629Y-102198388D01*
X70068244Y-100986667D01*
X70281607Y-99768653D01*
X70551756Y-98548114D01*
X70876734Y-97328815D01*
X71254580Y-96114526D01*
X71683335Y-94909012D01*
X72161039Y-93716042D01*
X72685733Y-92539383D01*
X73255457Y-91382802D01*
X73868252Y-90250067D01*
X74522159Y-89144945D01*
X75215218Y-88071203D01*
X75945469Y-87032609D01*
X76710953Y-86032931D01*
X77509710Y-85075934D01*
X78339782Y-84165388D01*
X79199208Y-83305058D01*
X80086029Y-82498714D01*
X80219353Y-82384304D01*
X81059390Y-81703279D01*
X81915438Y-81076834D01*
X82785365Y-80506034D01*
X83667041Y-79991943D01*
X84558334Y-79535624D01*
X85457114Y-79138143D01*
X86361249Y-78800563D01*
X87268610Y-78523949D01*
X88177065Y-78309364D01*
X88501731Y-78247899D01*
X88841879Y-78190731D01*
X89152530Y-78145748D01*
X89451090Y-78111309D01*
X89754966Y-78085773D01*
X90081562Y-78067499D01*
X90448285Y-78054846D01*
X90584187Y-78051555D01*
X91013445Y-78045738D01*
X91398249Y-78049251D01*
X91398249Y-78049251D01*
G37*
X91398249Y-78049251D02*
X91757104Y-78063158D01*
X92108515Y-78088520D01*
X92470988Y-78126400D01*
X92863026Y-78177862D01*
X92916375Y-78185496D01*
X93813917Y-78346329D01*
X94712925Y-78569636D01*
X95611396Y-78854483D01*
X96507325Y-79199939D01*
X97398709Y-79605072D01*
X98283545Y-80068950D01*
X99159830Y-80590641D01*
X100025558Y-81169212D01*
X100878728Y-81803731D01*
X101139625Y-82011064D01*
X101802217Y-82569269D01*
X102471756Y-83178846D01*
X103138401Y-83829924D01*
X103792315Y-84512635D01*
X104423660Y-85217107D01*
X104904885Y-85788511D01*
X105630894Y-86715508D01*
X106336654Y-87695536D01*
X107016876Y-88719913D01*
X107666269Y-89779957D01*
X108279541Y-90866984D01*
X108851403Y-91972313D01*
X109376565Y-93087262D01*
X109441754Y-93233875D01*
X109787964Y-94052840D01*
X110121413Y-94910211D01*
X110436924Y-95790548D01*
X110729322Y-96678415D01*
X110993432Y-97558373D01*
X111224078Y-98414982D01*
X111342368Y-98903186D01*
X111585123Y-100062678D01*
X111773661Y-101208356D01*
X111907828Y-102337561D01*
X111987470Y-103447634D01*
X112012437Y-104535915D01*
X111982573Y-105599744D01*
X111897726Y-106636464D01*
X111821629Y-107235625D01*
X111644639Y-108249217D01*
X111410819Y-109235180D01*
X111120927Y-110192645D01*
X110775716Y-111120747D01*
X110375943Y-112018618D01*
X109922364Y-112885393D01*
X109415733Y-113720204D01*
X108856807Y-114522185D01*
X108246340Y-115290469D01*
X107585089Y-116024189D01*
X106873809Y-116722480D01*
X106113255Y-117384473D01*
X105304183Y-118009303D01*
X104447349Y-118596103D01*
X103543508Y-119144007D01*
X102593415Y-119652146D01*
X101597826Y-120119656D01*
X100557497Y-120545669D01*
X100057778Y-120729722D01*
X99055063Y-121058340D01*
X98008355Y-121347501D01*
X96924096Y-121596332D01*
X95808725Y-121803961D01*
X94668686Y-121969514D01*
X93510417Y-122092118D01*
X92340362Y-122170899D01*
X91164960Y-122204986D01*
X89990653Y-122193503D01*
X89423875Y-122171286D01*
X88168499Y-122084186D01*
X86938744Y-121947469D01*
X85736529Y-121761765D01*
X84563778Y-121527704D01*
X83422410Y-121245917D01*
X82314348Y-120917033D01*
X81241513Y-120541683D01*
X80205827Y-120120497D01*
X79209209Y-119654105D01*
X78253583Y-119143138D01*
X77340870Y-118588225D01*
X76472990Y-117989997D01*
X76312484Y-117870862D01*
X75658577Y-117352111D01*
X75018012Y-116789932D01*
X74401596Y-116195058D01*
X73820133Y-115578222D01*
X73284428Y-114950156D01*
X72982432Y-114563046D01*
X72417290Y-113758818D01*
X71906527Y-112922392D01*
X71450390Y-112054772D01*
X71049130Y-111156959D01*
X70702995Y-110229957D01*
X70412233Y-109274768D01*
X70177094Y-108292394D01*
X69997826Y-107283839D01*
X69874679Y-106250104D01*
X69807901Y-105192192D01*
X69797741Y-104111107D01*
X69844447Y-103007849D01*
X69913629Y-102198388D01*
X70068244Y-100986667D01*
X70281607Y-99768653D01*
X70551756Y-98548114D01*
X70876734Y-97328815D01*
X71254580Y-96114526D01*
X71683335Y-94909012D01*
X72161039Y-93716042D01*
X72685733Y-92539383D01*
X73255457Y-91382802D01*
X73868252Y-90250067D01*
X74522159Y-89144945D01*
X75215218Y-88071203D01*
X75945469Y-87032609D01*
X76710953Y-86032931D01*
X77509710Y-85075934D01*
X78339782Y-84165388D01*
X79199208Y-83305058D01*
X80086029Y-82498714D01*
X80219353Y-82384304D01*
X81059390Y-81703279D01*
X81915438Y-81076834D01*
X82785365Y-80506034D01*
X83667041Y-79991943D01*
X84558334Y-79535624D01*
X85457114Y-79138143D01*
X86361249Y-78800563D01*
X87268610Y-78523949D01*
X88177065Y-78309364D01*
X88501731Y-78247899D01*
X88841879Y-78190731D01*
X89152530Y-78145748D01*
X89451090Y-78111309D01*
X89754966Y-78085773D01*
X90081562Y-78067499D01*
X90448285Y-78054846D01*
X90584187Y-78051555D01*
X91013445Y-78045738D01*
X91398249Y-78049251D01*
M02*
